<?xml version="1.0" encoding="utf-8"?>
<!-- Generator: Adobe Illustrator 23.0.1, SVG Export Plug-In . SVG Version: 6.00 Build 0)  -->
<svg version="1.1" id="Layer_1" xmlns="http://www.w3.org/2000/svg" xmlns:xlink="http://www.w3.org/1999/xlink" x="0px" y="0px"
	 viewBox="0 0 129.5 88.7" style="enable-background:new 0 0 129.5 88.7;" xml:space="preserve">
<style type="text/css">
	.st0{fill:#F1521B;}
	.st1{fill:#191919;}
</style>
<title>test_Artboard 16</title>
<path class="st0" d="M85,23.6c0,1.2-1,2.2-2.2,2.2h-0.2c-1.2,0-2.2-1-2.2-2.2V9.4c0-1.2,1-2.2,2.2-2.2h0.2c1.2,0,2.2,1,2.2,2.2V23.6
	z"/>
<path class="st0" d="M67.5,34.6c0,1.2-1,2.2-2.2,2.2h-0.2c-1.2,0-2.2-1-2.2-2.2V9.4c0-1.2,1-2.2,2.2-2.2h0.2c1.2,0,2.2,1,2.2,2.2
	V34.6z"/>
<path class="st0" d="M50.1,34.6c0,1.2-1,2.2-2.2,2.2h-0.1c-1.2,0-2.2-1-2.2-2.2V20.5c0-1.2,1-2.2,2.2-2.2h0.1c1.2,0,2.2,1,2.2,2.2
	V34.6z"/>
<path class="st0" d="M76.2,36.4c0,1.2-1,2.2-2.2,2.2h-0.2c-1.2,0-2.2-1-2.2-2.2V4.9c0-1.2,1-2.2,2.2-2.2h0.2c1.2,0,2.2,1,2.2,2.2
	V36.4z"/>
<path class="st0" d="M58.8,39.2c0,1.2-1,2.2-2.2,2.2h-0.1c-1.2,0-2.2-1-2.2-2.2V7.6c0-1.2,1-2.2,2.2-2.2h0.1c1.2,0,2.2,1,2.2,2.2
	V39.2z"/>
<polygon class="st1" points="17.3,79.7 8,79.7 8,62.7 3.9,62.7 3.9,83.6 17.3,83.6 "/>
<polygon class="st1" points="34.9,83.6 40.6,69.1 36.4,69.1 33,78.8 29.4,69.1 25.1,69.1 31,83.6 "/>
<polygon class="st1" points="66.3,83.6 74.1,62.7 69.8,62.7 64.3,78.2 58.9,62.7 54.4,62.7 62.2,83.6 "/>
<path class="st1" d="M85.6,70.8c-3-2.9-7.8-2.9-10.9,0c-2.9,3.1-2.9,7.9,0,11c3,2.9,7.8,2.9,10.9,0C88.5,78.7,88.5,73.9,85.6,70.8z
	 M82.8,79.4c-1.4,1.4-3.8,1.5-5.2,0c0,0,0,0,0,0c-1.4-1.8-1.4-4.3,0-6.1c1.4-1.4,3.8-1.5,5.2,0c0,0,0,0,0,0
	C84.2,75.1,84.2,77.6,82.8,79.4z"/>
<path class="st1" d="M21.3,66.7c0.6,0,1.3-0.3,1.7-0.8c0.5-0.4,0.7-1,0.7-1.7c0-0.6-0.3-1.3-0.7-1.7c-0.9-0.9-2.5-0.9-3.4,0
	c0,0,0,0,0,0c-0.5,0.5-0.7,1.1-0.7,1.7c0,0.6,0.2,1.2,0.7,1.7C20,66.5,20.7,66.7,21.3,66.7z"/>
<rect x="19.4" y="69.1" class="st1" width="3.9" height="14.5"/>
<path class="st1" d="M104.1,84c1.6,0.1,3.2-0.4,4.5-1.4c1.1-0.9,1.9-2.1,2.3-3.5l-3.5-1.1c-0.2,0.7-0.6,1.3-1.1,1.7
	c-0.6,0.5-1.4,0.8-2.2,0.7c-1,0-2-0.4-2.7-1.1c-0.7-0.8-1.1-1.9-1.1-3c-0.1-1.1,0.3-2.2,1.1-3c0.7-0.7,1.6-1.1,2.6-1.1
	c1.5-0.1,2.9,0.9,3.2,2.4l3.5-1.2c-0.3-1.4-1.2-2.6-2.3-3.5c-1.3-1-2.9-1.5-4.5-1.4c-2,0-4,0.7-5.4,2.2c-2.9,3.1-2.9,7.9,0,11
	C100.1,83.3,102.1,84.1,104.1,84z"/>
<rect x="90.1" y="69.1" class="st1" width="3.9" height="14.5"/>
<path class="st1" d="M92.1,66.7c0.6,0,1.3-0.2,1.7-0.7c0.5-0.4,0.7-1,0.7-1.7c0-0.7-0.2-1.3-0.7-1.7c-0.9-0.9-2.5-0.9-3.4,0
	c0,0,0,0,0,0c-0.5,0.5-0.7,1.1-0.7,1.7c0,0.6,0.2,1.2,0.7,1.7C90.8,66.5,91.4,66.7,92.1,66.7z"/>
<path class="st1" d="M48.2,68.6c-1.9,0-3.7,0.8-5,2.2c-2.9,3.2-2.8,8,0.1,11.2c1.4,1.4,3.3,2.1,5.3,2.1c1.5,0.1,3-0.4,4.3-1.3
	c1-0.7,1.7-1.6,2.2-2.7l-3.2-1.2c-0.5,1.2-1.8,2-3.2,1.9c-0.9,0-1.9-0.3-2.5-1c-0.7-0.6-1.1-1.4-1.1-2.4h10.3v-0.2
	c0-0.1,0-0.3,0-0.5s0-0.4,0-0.5c0.1-2-0.6-4-1.9-5.5C52,69.2,50.1,68.5,48.2,68.6z M45,74.7c0-0.8,0.4-1.5,0.9-2
	c0.6-0.6,1.4-0.9,2.3-0.9c0.9-0.1,1.7,0.2,2.4,0.8c0.5,0.5,0.8,1.2,0.9,2L45,74.7z"/>
<path class="st1" d="M124.7,70.6c-1.4-1.4-3.3-2.1-5.3-2c-1.9,0-3.7,0.8-5,2.2c-2.9,3.2-2.8,8,0.1,11.2c1.4,1.4,3.3,2.2,5.3,2.1
	c1.5,0.1,3-0.4,4.3-1.3c0.9-0.7,1.7-1.6,2.1-2.7l-3.2-1.2c-0.6,1.2-1.8,2-3.2,1.9c-0.9,0-1.9-0.3-2.5-1c-0.7-0.6-1.1-1.4-1.1-2.4
	h10.4v-0.2c0-0.1,0-0.3,0-0.5s0-0.4,0-0.5C126.7,74.1,126,72.1,124.7,70.6z M116.2,74.7c0-0.8,0.4-1.5,0.9-2
	c0.6-0.6,1.4-0.9,2.3-0.9c0.9-0.1,1.7,0.2,2.4,0.8c0.5,0.5,0.8,1.2,0.9,2L116.2,74.7z"/>
</svg>
